<?xml version="1.0" encoding="UTF-8"?><svg id="Layer_1" xmlns="http://www.w3.org/2000/svg" viewBox="0 0 640 640"><defs><style>.cls-1{fill:#e5e5e5;}</style></defs><path class="cls-1" d="M341.5,45.1c-4.1-8-12.4-13.1-21.4-13.1s-17.3,5.1-21.4,13.1l-73.6,144.2-159.9,25.4c-8.9,1.4-16.3,7.7-19.1,16.3-2.8,8.6-.5,18,5.8,24.4l114.4,114.5-25.2,159.9c-1.4,8.9,2.3,17.9,9.6,23.2s16.9,6.1,25,2l144.4-73.4,144.3,73.4c8,4.1,17.7,3.3,25-2,7.3-5.3,11-14.2,9.6-23.2l-25.3-159.9,114.4-114.5c6.4-6.4,8.6-15.8,5.8-24.4-2.8-8.6-10.1-14.9-19.1-16.3l-159.8-25.4-73.5-144.2Z"/></svg>